<?xml version="1.0" encoding="UTF-8" standalone="no"?>
<!-- Created with Inkscape (http://www.inkscape.org/) -->

<svg
   width="650"
   height="400"
   viewBox="0 0 171.97914 105.83332"
   version="1.1"
   id="svg5"
   xml:space="preserve"
   xmlns="http://www.w3.org/2000/svg"
   xmlns:svg="http://www.w3.org/2000/svg"><defs
     id="defs2" /><g
     id="layer1"><path
       style="fill:#800000;fill-opacity:1;stroke-width:0.264583"
       d="m 3.3087556,91.463058 v -8.466622 h 4.8947901 4.8947923 v -8.849431 -8.84947 l 5.886979,-0.0802 5.886979,-0.0802 4.299479,0.0788 4.299479,0.0788 v 8.85091 8.850871 h 12.303125 12.303125 v -8.334341 -8.33438 H 68.13167 78.185837 V 83.128793 99.92978 H 40.747296 3.3087556 Z m 83.8729144,0.0157 v -8.482302 h 3.836454 3.836442 V 52.833995 22.671495 H 91.018124 87.18167 v -8.46667 -8.4666706 h 19.41883 19.41884 l 2.68838,0.27588 2.68837,0.27588 2.43289,0.63503 2.43288,0.63502 2.11667,0.70151 2.11666,0.70151 2.76055,1.3049606 2.76055,1.30496 1.73737,1.08972 1.73737,1.08973 2.23174,1.73402 2.23175,1.73401 1.95087,1.96996 1.95087,1.96995 1.68275,2.15501 1.68276,2.15501 1.38311,2.23003 1.38311,2.23003 1.03988,2.25754 1.03989,2.25754 1.03288,2.99057 1.03289,2.99057 0.59776,2.96256 0.59776,2.96255 0.003,6.2177 0.003,6.21771 -0.52917,2.64584 -0.52916,2.64583 -0.13229,-2.64583 -0.1323,-2.64584 -0.82357,-0.39687 -0.82358,-0.39688 -0.14499,-2.93875 -0.14499,-2.93876 -0.57199,-1.32962 -0.57199,-1.32961 -0.7084,-0.66886 -0.7084,-0.66886 -1.05834,-0.54031 -1.05833,-0.54032 -1.5875,-0.24404 -1.5875,-0.24404 -1.5875,0.20671 -1.5875,0.20672 -1.14943,0.41871 -1.14943,0.41871 -1.30435,0.70991 -1.30435,0.70992 -0.16446,0.65527 -0.16446,0.65527 0.94754,1.91494 0.94753,1.91494 -0.64206,0.60319 -0.64206,0.60318 -0.5315,1.09795 -0.53151,1.09795 v 0.71952 0.71953 l -0.55621,-0.29768 -0.55622,-0.29768 -0.52302,0.13677 -0.52302,0.13677 0.14759,-0.3846 0.14759,-0.38461 0.17594,-2.10963 0.17593,-2.10963 h 0.47612 0.47613 l 0.41188,-0.58804 0.41187,-0.58804 v -2.32238 -2.32237 l -0.52916,-0.52917 -0.52917,-0.52917 h -0.6088 -0.6088 l -0.35809,-2.05052 -0.35809,-2.05052 -0.86371,-2.2815 -0.86371,-2.28151 -0.71716,-1.42266 -0.71715,-1.42266 -1.19359,-1.85208 -1.19358,-1.85209 -1.88106,-1.9471 -1.88105,-1.94711 -1.62976,-1.16793 -1.62976,-1.16793 -1.94212,-0.88774 -1.9421,-0.88774 -1.71979,-0.47147 -1.71979,-0.47147 -5.75469,-0.11219 -5.75468,-0.11218 v 9.93924 9.93923 l -1.68906,-0.92843 -1.68907,-0.92842 -1.81666,-0.38489 -1.81667,-0.38489 -4.79297,-0.005 -4.792964,-0.005 -0.69714,0.54837 -0.69714,0.54837 v 2.43546 2.43547 l 0.41188,0.58804 0.41188,0.58804 h 0.51416 0.51416 v 5.53842 5.53842 l -0.5276,0.16745 -0.5276,0.16746 -0.39844,0.39844 -0.39844,0.39844 v 2.49464 2.49464 l 0.52917,0.52917 0.52916,0.52917 h 5.528384 5.52838 l 1.68152,-0.51968 1.68152,-0.51967 1.25677,-0.79742 1.25677,-0.79741 v 10.18063 10.180591 h 5.38163 5.38164 l 2.09284,-0.533367 2.09284,-0.533377 1.9609,-0.929047 1.96089,-0.929044 1.61098,-1.153904 1.61098,-1.153891 1.73912,-1.815431 1.73912,-1.81544 1.40758,-2.09466 1.40758,-2.09466 1.03322,-2.20482 1.03321,-2.20482 h 0.61547 0.61547 l 1.14461,-0.40384 1.1446,-0.40384 0.47616,-0.43092 0.47616,-0.43092 v -0.64074 -0.64076 l 0.6736,0.80053 0.6736,0.80054 1.41135,0.69051 1.41134,0.6905 1.68537,0.007 1.68536,0.007 4.9712,-0.22051 4.97119,-0.22052 0.26237,-0.39688 0.26236,-0.39687 -0.17912,0.79375 -0.17912,0.79375 -0.90952,2.64583 -0.90952,2.64584 -1.27509,2.64583 -1.27509,2.645827 -1.38248,2.116658 -1.38249,2.116658 -1.65624,2.116648 -1.65623,2.116658 -2.21236,2.136988 -2.21236,2.136988 -2.03673,1.522691 -2.03673,1.522681 -2.97339,1.696624 -2.97339,1.69664 -2.39821,0.91365 -2.39822,0.91365 -2.29088,0.68395 -2.29088,0.68396 -1.94245,0.42981 -1.94245,0.429814 -21.23281,0.10642 -21.2328,0.10641 v -8.482352 z m -35.262851,-27.570333 -0.99931,-0.22121 -0.774102,-0.57232 -0.774105,-0.57231 -0.409398,-1.0232 -0.4094,-1.02319 v -4.09569 -4.09568 h -1.058333 -1.058334 v -1.85209 -1.85208 h 1.046742 1.046742 l 0.07774,-1.84632 0.07774,-1.84633 2.182812,-1.05457 2.182813,-1.05458 v 2.9009 2.9009 h 1.455208 1.455208 v 1.85208 1.85209 h -1.455208 -1.455208 v 3.81755 3.81756 l 0.409043,0.40905 0.409046,0.40904 1.143169,-0.15669 1.143172,-0.15669 0.183089,0.97596 0.183092,0.97596 0.127764,0.33295 0.127765,0.33295 -1.003176,0.4223 -1.003173,0.4223 -0.926041,0.11128 -0.926042,0.11127 -0.99931,-0.2212 z m 29.775271,0.01 -1.38655,-0.23112 -1.220003,-0.57347 -1.220002,-0.57346 -1.022442,-1.29349 -1.022446,-1.29349 -0.288181,-0.97985 -0.288184,-0.97986 -0.146484,-1.4552 -0.146482,-1.45521 0.444408,-1.52135 0.444405,-1.52134 1.004834,-1.27121 1.004835,-1.27121 1.633423,-0.73304 1.633429,-0.73303 1.64245,-0.009 1.64245,-0.009 1.09982,0.29683 1.09982,0.29684 1.33275,1.19826 1.33276,1.19826 0.50853,1.37787 0.50854,1.37787 0.18088,1.65364 0.180877,1.65365 H 84.92802 79.20851 l 0.180533,0.59531 0.18053,0.59532 0.564907,0.62045 0.5649,0.62045 0.71447,0.37173 0.71446,0.37174 h 1.28047 1.28047 l 1.5237,-0.39687 1.52371,-0.39688 h 0.0942 0.0942 l 0.6866,1.17159 0.6866,1.1716 v 0.27915 0.27916 l -1.25677,0.63301 -1.25677,0.63301 -1.40209,0.29749 -1.40208,0.29749 -0.45,-0.0309 -0.45,-0.0309 -1.38654,-0.23111 z m 4.16467,-10.13778 v -0.37658 l -0.67741,-0.80505 -0.67741,-0.80505 -0.93561,-0.17552 -0.93562,-0.17552 -1.01861,0.30518 -1.01862,0.30518 -0.54337,0.69078 -0.543357,0.69077 v 0.36119 0.36119 h 3.175007 3.175 z m 38.62914,10.07601 -1.45521,-0.32668 -0.70922,-0.47143 -0.70921,-0.47143 -0.3937,-0.60085 -0.39369,-0.60084 -0.29634,-1.10056 -0.29636,-1.10056 0.30021,-1.11489 0.30021,-1.11489 0.96836,-0.96836 0.96836,-0.96836 1.48773,-0.33293 1.48772,-0.33294 2.01641,0.24798 2.0164,0.24798 v -0.69609 -0.69609 l -0.68427,-0.64144 -0.68428,-0.64143 -2.0277,0.0222 -2.02771,0.0222 -0.99415,0.42816 -0.99416,0.42816 -0.65949,-1.30144 -0.65949,-1.30145 v -0.15499 -0.15498 l 1.76568,-0.82626 1.76567,-0.82626 2.04525,-0.1184 2.04524,-0.1184 1.30858,0.31393 1.30858,0.31392 0.94046,0.77521 0.94046,0.7752 0.42233,1.23948 0.42233,1.23948 v 3.39245 3.39245 h 1.05834 1.05833 v 1.98437 1.98438 h -3.175 -3.175 v -0.37288 -0.37286 l -0.99687,0.48164 -0.99688,0.48163 -0.92135,0.14179 -0.92136,0.14178 -1.45521,-0.32668 z m 4.31011,-3.7377 0.98156,-0.46578 v -1.02819 -1.02818 h -2.16198 -2.16198 l -0.48385,0.43788 -0.48386,0.43788 v 0.73774 0.73774 l 0.59532,0.42999 0.59531,0.42999 1.06896,-0.11164 1.06896,-0.11165 z m 15.03697,3.80983 -0.89355,-0.1935 -0.69395,-0.50504 -0.69395,-0.50505 -0.59531,-1.16505 -0.59532,-1.16505 v -4.04498 -4.04498 h -1.05833 -1.05833 v -1.85208 -1.85209 h 1.05833 1.05833 v -1.79311 -1.79312 l 2.24896,-1.11537 2.24896,-1.11537 v 2.90849 2.90848 h 1.5875 1.5875 v 1.85209 1.85208 h -1.5875 -1.5875 v 3.74948 3.74948 l 0.42928,0.47435 0.42928,0.47435 1.1302,-0.15491 1.13019,-0.15491 0.14056,0.49514 0.14057,0.49515 0.17058,0.84859 0.17059,0.8486 -0.87844,0.36566 -0.87844,0.36566 -1.05833,0.13025 -1.05833,0.13026 z m 11.5835,0.0171 -1.2163,-0.2082 -0.82055,-0.42432 -0.82054,-0.42432 -0.70783,-0.92801 -0.70782,-0.92801 -0.13436,-1.19204 -0.13436,-1.19204 0.45626,-1.19472 0.45627,-1.19472 0.95135,-0.64646 0.95135,-0.64646 1.39172,-0.31146 1.39173,-0.31145 1.89216,0.25613 1.89217,0.25614 0.1249,-0.32547 0.12489,-0.32548 -0.40798,-0.78894 -0.40798,-0.78895 -0.84127,-0.29327 -0.84127,-0.29327 h -0.99528 -0.99527 l -1.57506,0.49022 -1.57506,0.49021 -0.66768,-1.36137 -0.66768,-1.36137 0.96338,-0.55445 0.96338,-0.55445 1.4361,-0.42648 1.4361,-0.42648 h 1.75692 1.75693 l 1.22574,0.41765 1.22574,0.41765 0.90458,1.00126 0.90458,1.00126 0.29806,1.71162 0.29807,1.71161 v 2.55802 2.55801 h 0.92604 0.92604 v 1.98438 1.98437 h -3.02066 -3.02066 l -0.10848,-0.32544 -0.10848,-0.32545 -1.03805,0.44356 -1.03804,0.44356 -0.79375,0.11781 -0.79375,0.11782 -1.2163,-0.20821 z m 4.10374,-3.91546 0.81672,-0.47511 0.0821,-0.97925 0.0821,-0.97925 h -2.26493 -2.26493 l -0.52917,0.52917 -0.52916,0.52917 v 0.4089 0.4089 l 0.6825,0.68251 0.68252,0.68251 1.21273,-0.16622 1.21274,-0.16623 z M 6.2191707,61.697835 v -1.98437 h 1.190625 1.190625 v -6.87917 -6.87916 h -1.190625 -1.190625 v -2.24896 -2.24896 h 8.7312503 8.73125 v 3.83646 3.83646 h -2.248958 -2.248958 v -1.5875 -1.5875 h -2.910417 -2.910417 v 2.24895 2.24896 h 2.116667 2.116667 v 2.11667 2.11667 h -2.116667 -2.116667 v 2.51354 2.51354 h 2.910417 2.910417 v -1.98438 -1.98437 h 2.248958 2.248958 v 3.96875 3.96875 h -8.73125 -8.7312503 z m 19.8437503,0 v -1.98437 h 1.058333 1.058334 v -3.57188 -3.57187 h -1.058334 -1.058333 v -1.98438 -1.98437 h 3.307292 3.307291 v 0.52917 0.52916 h 0.275125 0.275124 l 1.113938,-0.58662 1.113938,-0.58663 1.984375,-0.009 1.984375,-0.009 1.015799,0.50438 1.015799,0.50437 0.653852,0.98804 0.653851,0.98803 0.243258,1.68259 0.243261,1.68259 0.0053,2.4474 0.0053,2.4474 h 1.058333 1.058333 v 1.98437 1.98438 h -3.439583 -3.439583 v -4.50642 -4.50641 l -0.374475,-0.89625 -0.374476,-0.89625 -0.534172,-0.28588 -0.534173,-0.28588 h -0.904309 -0.904306 l -0.899025,0.60525 -0.899022,0.60526 -0.07454,3.09891 -0.07454,3.09892 h 1.19902 1.199023 v 1.98437 1.98438 h -4.630208 -4.630209 v -1.98438 z m 33.072916,0 v -1.98437 h 1.058333 1.058334 v -3.57188 -3.57187 H 60.19417 59.135837 v -1.98438 -1.98437 h 3.307292 3.307291 v 0.50064 0.50065 l 0.981986,-0.50065 0.981985,-0.50064 h 2.589889 2.58989 v 2.77812 2.77813 H 70.909795 68.92542 v -0.79375 -0.79375 h -0.938067 -0.938069 l -0.649431,0.64943 -0.649433,0.64943 v 2.92245 2.92244 h 1.5875 1.5875 v 1.98437 1.98438 h -4.894791 -4.894792 z m 39.687479,0.0188 v -2.00319 h 0.92604 0.926044 v -7.14375 -7.14375 h -0.937634 -0.93763 l 0.0777,-1.91823 0.0777,-1.91823 5.159384,0.0246 5.15937,0.0246 1.69785,0.58843 1.69785,0.58842 1.08028,0.7453 1.08027,0.7453 0.87741,1.09535 0.8774,1.09536 0.63682,1.391 0.63682,1.391 0.24221,1.71158 0.24221,1.71158 -0.24545,1.5875 -0.24546,1.5875 -0.76076,1.63502 -0.76076,1.63503 -1.11837,1.21329 -1.11837,1.21329 -1.99801,0.98814 -1.998,0.98815 -5.63749,0.085 -5.637494,0.085 v -2.0032 z m 10.715634,-2.50327 1.05833,-0.48845 0.58002,-0.631 0.58003,-0.63099 0.7085,-1.54759 0.70851,-1.54758 -0.11752,-2.1558 -0.11753,-2.15581 -0.47302,-0.92604 -0.47303,-0.92604 -0.83027,-0.88247 -0.83027,-0.88247 -0.73507,-0.38495 -0.73506,-0.38495 -1.71233,-0.1599 -1.71234,-0.1599 v 7.18201 7.18201 l 1.52136,-0.006 1.52135,-0.006 1.05834,-0.48846 z m -2.51355,-6.6647 v -5.57727 l 0.8599,0.18229 0.8599,0.18229 0.82266,0.61755 0.82266,0.61755 0.50025,1.00712 0.50026,1.00712 v 2.13628 2.13628 l -0.73819,1.1152 -0.7382,1.11519 -0.8493,0.51785 -0.84931,0.51785 -0.59531,0.001 -0.59532,9.3e-4 v -5.57727 z m 42.33334,7.03249 v -0.13229 h 0.13229 0.13229 v 0.13229 0.1323 h -0.13229 -0.13229 z m -102.744425,-0.76879 -0.142722,-0.37193 -0.811628,-0.17826 -0.811628,-0.17827 -0.0055,-2.16179 -0.0055,-2.16179 -0.341908,-1.63124 -0.341908,-1.63125 -0.633963,-0.92521 -0.63396,-0.9252 -1.066668,-0.69164 -1.06667,-0.69164 -1.060802,-0.28696 -1.060802,-0.28696 -1.984375,0.17037 -1.984375,0.17037 -4.497916,-0.0312 -4.497917,-0.0312 -0.102245,-0.10184 -0.102243,-0.10184 -0.03005,-2.9418 -0.03007,-2.94179 -0.624623,-0.50579 -0.624626,-0.50579 h -5.52694 -5.526938 v -7.8052 -7.80521 H 8.2035457 3.3087556 V 14.998895 5.7384744 H 40.747296 78.185837 V 21.745765 37.753055 H 68.13167 58.077504 v -6.74687 -6.74688 H 45.774379 33.471254 v 9.39271 9.39271 l 7.606771,0.008 7.606771,0.008 -0.529167,0.28943 -0.529167,0.28943 -0.330729,0.41455 -0.330729,0.41455 v 1.27235 1.27235 h -0.642559 -0.642559 l -0.415774,0.41577 -0.415775,0.41578 v 2.60803 2.60804 l 0.415775,0.41577 0.415774,0.41578 h 0.642559 0.642559 v 2.64583 2.64583 H 46.86102 46.757036 Z m -10.34936,-0.30971 -0.51359,-0.3767 h -0.610889 -0.610888 v -1.84278 -1.84277 l 0.511773,-0.27389 0.511773,-0.27389 h 0.404958 0.40496 l 0.284964,0.53245 0.284962,0.53246 -0.07722,1.96091 -0.07722,1.96092 z m -21.314534,-1.30274 v -0.92604 h 1.190625 1.190625 v 0.92604 0.92604 h -1.190625 -1.190625 z m 10.524538,-0.57312 -0.124323,-1.49917 -0.599209,-0.48521 -0.599213,-0.48521 h -2.351938 -2.351938 v -1.71979 -1.71979 h 2.34684 2.346842 l 0.135408,1.20136 0.135411,1.20136 0.469173,0.51843 0.469175,0.51843 h 0.62045 0.620451 v 1.98437 1.98438 h -0.496404 -0.496403 z m -10.524538,-8.55501 v -0.52916 h 1.190625 1.190625 v 0.52916 0.52917 h -1.190625 -1.190625 z"
       id="path304" /></g></svg>
